<?xml version="1.0" encoding="UTF-8"?>
<svg width="478px" height="478px" viewBox="0 0 478 478" version="1.1" xmlns="http://www.w3.org/2000/svg" xmlns:xlink="http://www.w3.org/1999/xlink">
    <title>Path</title>
    <g id="Page-1" stroke="none" stroke-width="1" fill="none" fill-rule="evenodd">
        <g id="tel" fill="#E8C300" fill-rule="nonzero">
            <path d="M475.009,380.316 L472.634,373.16 C467.009,356.441 448.572,339.004 431.634,334.41 L368.946,317.285 C351.946,312.66 327.696,318.879 315.258,331.316 L292.57,354.004 C210.117,331.724 145.461,267.066 123.211,184.629 L145.9,161.94 C158.338,149.502 164.556,125.284 159.931,108.284 L142.837,45.565 C138.212,28.596 120.743,10.159 104.056,4.596 L96.9,2.19 C80.181,-3.373 56.337,2.253 43.9,14.69 L9.962,48.659 C3.899,54.69 0.024,71.94 0.024,72.003 C-1.163,179.753 41.087,283.565 117.305,359.784 C193.336,435.815 296.759,478.003 404.196,477.097 C404.758,477.097 422.508,473.284 428.571,467.252 L462.509,433.314 C474.946,420.878 480.571,397.035 475.009,380.316 Z" id="Path"></path>
        </g>
    </g>
</svg>